<svg width="158" height="40" viewBox="0 0 158 40" fill="none" xmlns="http://www.w3.org/2000/svg">
<g clip-path="url(#clip0_17844_80)">
<g clip-path="url(#clip1_17844_80)">
<path fill-rule="evenodd" clip-rule="evenodd" d="M38.7217 39.9254C38.7871 39.9531 38.8461 39.9781 38.896 39.9997C39.6213 40.0071 40.0697 39.5741 39.9912 39.0303C39.9607 38.8437 39.8985 38.6627 39.8071 38.4939C38.4546 35.763 37.0958 33.0351 35.7305 30.3101C35.5749 29.9429 35.277 29.6422 34.8947 29.4663C33.9363 29.0516 32.9903 28.6073 32.0452 28.1634C31.9767 28.1312 31.9082 28.099 31.8397 28.0669C30.713 27.5377 29.5872 27.0064 28.4612 26.475C27.0687 25.8179 25.6759 25.1606 24.2806 24.5069C23.2623 24.0299 22.2409 23.5581 21.2196 23.0864C20.4536 22.7326 19.6876 22.3788 18.9231 22.0228C18.3179 21.7421 18.0617 21.2382 18.2603 20.7239C18.3563 20.4845 18.4652 20.2495 18.5805 20.0175C19.8155 17.5645 21.0484 15.1109 22.2792 12.6568C22.5162 12.1838 22.7507 11.7099 22.9853 11.236C23.405 10.3878 23.8247 9.53983 24.2582 8.69794C24.3743 8.49696 24.4359 8.27305 24.4379 8.04531C24.4398 7.81757 24.382 7.59278 24.2694 7.39013C23.831 6.53361 23.4078 5.67067 22.9846 4.80792C22.734 4.29678 22.4833 3.78571 22.2295 3.27607C21.7716 2.35888 21.3073 1.44415 20.8365 0.53188C20.6636 0.194952 20.4154 -0.0281889 19.9511 0.00284392C19.5108 0.0397878 19.2642 0.248151 19.0913 0.593945C18.8025 1.17317 18.5104 1.75091 18.2183 2.32889C18.0051 2.75067 17.7919 3.17257 17.5798 3.59526C16.4632 5.81879 15.3488 8.04428 14.2365 10.2718C13.1147 12.5199 11.9938 14.77 10.8741 17.0221C10.596 17.5816 10.3228 18.1426 10.0496 18.7037C9.70143 19.4186 9.35316 20.1337 8.99434 20.8466C8.72328 21.3934 8.44762 21.9384 8.17202 22.4832C7.86154 23.0969 7.55113 23.7106 7.24747 24.3267C7.0153 24.7981 7.14339 25.1439 7.61253 25.4394C7.78351 25.5431 7.96161 25.6364 8.14572 25.7187C10.4493 26.7896 12.756 27.86 15.0659 28.9299L21.5186 31.9194C23.3194 32.7489 25.117 33.5833 26.9113 34.4227C27.7251 34.8035 28.537 35.1878 29.3489 35.572C30.2255 35.9869 31.1019 36.4017 31.9806 36.8122C34.0258 37.7639 36.0716 38.7136 38.1178 39.6613C38.3335 39.7608 38.55 39.8526 38.7217 39.9254ZM0.116885 38.6121C0.0629791 38.7374 0.0237935 38.8677 0 39.0007C0.0160116 39.8149 0.640464 40.177 1.32256 39.8593C2.46667 39.3411 3.60534 38.8088 4.74395 38.2765C4.98527 38.1637 5.22659 38.0509 5.46796 37.9382C7.82593 36.8397 10.1834 35.7383 12.5403 34.6339C13.7476 34.0665 14.958 33.4931 16.1493 32.902C16.9499 32.5075 16.9499 31.7331 16.1493 31.3253C15.3983 30.941 14.6346 30.576 13.8676 30.2184C13.1506 29.8861 12.4303 29.558 11.7101 29.2299C11.2933 29.04 10.8765 28.8501 10.4604 28.6594C10.0724 28.4809 9.6852 28.3014 9.29802 28.1219C8.49944 27.7518 7.70116 27.3818 6.89779 27.0206C6.44627 26.8181 6.0828 26.9201 5.78979 27.2939C5.67265 27.4482 5.57286 27.6131 5.49197 27.786C5.26269 28.2495 5.03579 28.7143 4.80892 29.179C4.54466 29.7203 4.28044 30.2616 4.0125 30.8007C2.71023 33.4035 1.41169 36.0073 0.116885 38.6121Z" fill="white"/>
</g>
<path d="M151.089 28.5925C149.969 28.5925 148.961 28.3475 148.065 27.8575C147.169 27.3535 146.462 26.6465 145.944 25.7365C145.44 24.8265 145.188 23.7765 145.188 22.5865C145.188 21.3965 145.447 20.3465 145.965 19.4365C146.497 18.5265 147.218 17.8265 148.128 17.3365C149.038 16.8325 150.053 16.5805 151.173 16.5805C152.293 16.5805 153.308 16.8325 154.218 17.3365C155.128 17.8265 155.842 18.5265 156.36 19.4365C156.892 20.3465 157.158 21.3965 157.158 22.5865C157.158 23.7765 156.885 24.8265 156.339 25.7365C155.807 26.6465 155.079 27.3535 154.155 27.8575C153.245 28.3475 152.223 28.5925 151.089 28.5925ZM151.089 26.0305C151.621 26.0305 152.118 25.9045 152.58 25.6525C153.056 25.3865 153.434 24.9945 153.714 24.4765C153.994 23.9585 154.134 23.3285 154.134 22.5865C154.134 21.4805 153.84 20.6335 153.252 20.0455C152.678 19.4435 151.971 19.1425 151.131 19.1425C150.291 19.1425 149.584 19.4435 149.01 20.0455C148.45 20.6335 148.17 21.4805 148.17 22.5865C148.17 23.6925 148.443 24.5465 148.989 25.1485C149.549 25.7365 150.249 26.0305 151.089 26.0305Z" fill="white"/>
<path d="M136.247 16.5805C137.115 16.5805 137.878 16.7555 138.536 17.1055C139.194 17.4415 139.712 17.8825 140.09 18.4285V16.7695H143.051V28.4875C143.051 29.5655 142.834 30.5245 142.4 31.3645C141.966 32.2185 141.315 32.8905 140.447 33.3805C139.579 33.8845 138.529 34.1365 137.297 34.1365C135.645 34.1365 134.287 33.7515 133.223 32.9815C132.173 32.2115 131.578 31.1615 131.438 29.8315H134.357C134.511 30.3635 134.84 30.7835 135.344 31.0915C135.862 31.4135 136.485 31.5745 137.213 31.5745C138.067 31.5745 138.76 31.3155 139.292 30.7975C139.824 30.2935 140.09 29.5235 140.09 28.4875V26.6815C139.712 27.2275 139.187 27.6825 138.515 28.0465C137.857 28.4105 137.101 28.5925 136.247 28.5925C135.267 28.5925 134.371 28.3405 133.559 27.8365C132.747 27.3325 132.103 26.6255 131.627 25.7155C131.165 24.7915 130.934 23.7345 130.934 22.5445C130.934 21.3685 131.165 20.3255 131.627 19.4155C132.103 18.5055 132.74 17.8055 133.538 17.3155C134.35 16.8255 135.253 16.5805 136.247 16.5805ZM140.09 22.5865C140.09 21.8725 139.95 21.2635 139.67 20.7595C139.39 20.2415 139.012 19.8495 138.536 19.5835C138.06 19.3035 137.549 19.1635 137.003 19.1635C136.457 19.1635 135.953 19.2965 135.491 19.5625C135.029 19.8285 134.651 20.2205 134.357 20.7385C134.077 21.2425 133.937 21.8445 133.937 22.5445C133.937 23.2445 134.077 23.8605 134.357 24.3925C134.651 24.9105 135.029 25.3095 135.491 25.5895C135.967 25.8695 136.471 26.0095 137.003 26.0095C137.549 26.0095 138.06 25.8765 138.536 25.6105C139.012 25.3305 139.39 24.9385 139.67 24.4345C139.95 23.9165 140.09 23.3005 140.09 22.5865Z" fill="white"/>
<path d="M128.785 12.8635V28.4035H125.845V12.8635H128.785Z" fill="white"/>
<path d="M119.801 25.6105H113.963L112.997 28.4035H109.91L115.181 13.7245H118.604L123.875 28.4035H120.767L119.801 25.6105ZM119.003 23.2585L116.882 17.1265L114.761 23.2585H119.003Z" fill="white"/>
<path d="M108.667 22.3345C108.667 22.7545 108.639 23.1325 108.583 23.4685H100.078C100.148 24.3085 100.442 24.9665 100.96 25.4425C101.478 25.9185 102.115 26.1565 102.871 26.1565C103.963 26.1565 104.74 25.6875 105.202 24.7495H108.373C108.037 25.8695 107.393 26.7935 106.441 27.5215C105.489 28.2355 104.32 28.5925 102.934 28.5925C101.814 28.5925 100.806 28.3475 99.9102 27.8575C99.0282 27.3535 98.3352 26.6465 97.8312 25.7365C97.3412 24.8265 97.0962 23.7765 97.0962 22.5865C97.0962 21.3825 97.3412 20.3255 97.8312 19.4155C98.3212 18.5055 99.0072 17.8055 99.8892 17.3155C100.771 16.8255 101.786 16.5805 102.934 16.5805C104.04 16.5805 105.027 16.8185 105.895 17.2945C106.777 17.7705 107.456 18.4495 107.932 19.3315C108.422 20.1995 108.667 21.2005 108.667 22.3345ZM105.622 21.4945C105.608 20.7385 105.335 20.1365 104.803 19.6885C104.271 19.2265 103.62 18.9955 102.85 18.9955C102.122 18.9955 101.506 19.2195 101.002 19.6675C100.512 20.1015 100.211 20.7105 100.099 21.4945H105.622Z" fill="white"/>
<path d="M82.8638 22.5445C82.8638 21.3685 83.0948 20.3255 83.5568 19.4155C84.0328 18.5055 84.6768 17.8055 85.4888 17.3155C86.3008 16.8255 87.2038 16.5805 88.1978 16.5805C88.9538 16.5805 89.6748 16.7485 90.3608 17.0845C91.0468 17.4065 91.5928 17.8405 91.9988 18.3865V12.8635H94.9808V28.4035H91.9988V26.6815C91.6348 27.2555 91.1238 27.7175 90.4658 28.0675C89.8078 28.4175 89.0448 28.5925 88.1768 28.5925C87.1968 28.5925 86.3008 28.3405 85.4888 27.8365C84.6768 27.3325 84.0328 26.6255 83.5568 25.7155C83.0948 24.7915 82.8638 23.7345 82.8638 22.5445ZM92.0198 22.5865C92.0198 21.8725 91.8798 21.2635 91.5998 20.7595C91.3198 20.2415 90.9418 19.8495 90.4658 19.5835C89.9898 19.3035 89.4788 19.1635 88.9328 19.1635C88.3868 19.1635 87.8828 19.2965 87.4208 19.5625C86.9588 19.8285 86.5808 20.2205 86.2868 20.7385C86.0068 21.2425 85.8668 21.8445 85.8668 22.5445C85.8668 23.2445 86.0068 23.8605 86.2868 24.3925C86.5808 24.9105 86.9588 25.3095 87.4208 25.5895C87.8968 25.8695 88.4008 26.0095 88.9328 26.0095C89.4788 26.0095 89.9898 25.8765 90.4658 25.6105C90.9418 25.3305 91.3198 24.9385 91.5998 24.4345C91.8798 23.9165 92.0198 23.3005 92.0198 22.5865Z" fill="white"/>
<path d="M68.6313 22.5445C68.6313 21.3685 68.8623 20.3255 69.3243 19.4155C69.8003 18.5055 70.4373 17.8055 71.2353 17.3155C72.0473 16.8255 72.9503 16.5805 73.9443 16.5805C74.8123 16.5805 75.5683 16.7555 76.2123 17.1055C76.8703 17.4555 77.3953 17.8965 77.7873 18.4285V16.7695H80.7483V28.4035H77.7873V26.7025C77.4093 27.2485 76.8843 27.7035 76.2123 28.0675C75.5543 28.4175 74.7913 28.5925 73.9233 28.5925C72.9433 28.5925 72.0473 28.3405 71.2353 27.8365C70.4373 27.3325 69.8003 26.6255 69.3243 25.7155C68.8623 24.7915 68.6313 23.7345 68.6313 22.5445ZM77.7873 22.5865C77.7873 21.8725 77.6473 21.2635 77.3673 20.7595C77.0873 20.2415 76.7093 19.8495 76.2333 19.5835C75.7573 19.3035 75.2463 19.1635 74.7003 19.1635C74.1543 19.1635 73.6503 19.2965 73.1883 19.5625C72.7263 19.8285 72.3483 20.2205 72.0543 20.7385C71.7743 21.2425 71.6343 21.8445 71.6343 22.5445C71.6343 23.2445 71.7743 23.8605 72.0543 24.3925C72.3483 24.9105 72.7263 25.3095 73.1883 25.5895C73.6643 25.8695 74.1683 26.0095 74.7003 26.0095C75.2463 26.0095 75.7573 25.8765 76.2333 25.6105C76.7093 25.3305 77.0873 24.9385 77.3673 24.4345C77.6473 23.9165 77.7873 23.3005 77.7873 22.5865Z" fill="white"/>
<path d="M63.8372 18.5755C64.2152 17.9595 64.7052 17.4765 65.3072 17.1265C65.9232 16.7765 66.6232 16.6015 67.4072 16.6015V19.6885H66.6302C65.7062 19.6885 65.0062 19.9055 64.5302 20.3395C64.0682 20.7735 63.8372 21.5295 63.8372 22.6075V28.4035H60.8972V16.7695H63.8372V18.5755Z" fill="white"/>
<path d="M58.752 13.7455V16.1185H54.846V28.4035H51.906V16.1185H48V13.7455H58.752Z" fill="white"/>
</g>
<defs>
<clipPath id="clip0_17844_80">
<rect width="157.158" height="40" fill="white"/>
</clipPath>
<clipPath id="clip1_17844_80">
<rect width="40" height="40" fill="white"/>
</clipPath>
</defs>
</svg>
