<svg width="40" height="40" viewBox="0 0 40 40" fill="none" xmlns="http://www.w3.org/2000/svg">
<g clip-path="url(#clip0_17844_81)">
<g clip-path="url(#clip1_17844_81)">
<path fill-rule="evenodd" clip-rule="evenodd" d="M38.7217 39.9254C38.7871 39.9531 38.8461 39.9781 38.896 39.9997C39.6213 40.0071 40.0697 39.5741 39.9912 39.0303C39.9607 38.8437 39.8985 38.6627 39.8071 38.4939C38.4546 35.763 37.0958 33.0351 35.7305 30.3101C35.5749 29.9429 35.277 29.6422 34.8947 29.4663C33.9363 29.0516 32.9903 28.6073 32.0452 28.1634C31.9767 28.1312 31.9082 28.099 31.8397 28.0669C30.713 27.5377 29.5872 27.0064 28.4612 26.4751C27.0687 25.8179 25.6759 25.1606 24.2806 24.507C23.2623 24.0299 22.2409 23.5581 21.2196 23.0864C20.4536 22.7326 19.6876 22.3788 18.9231 22.0229C18.3179 21.7421 18.0617 21.2382 18.2603 20.7239C18.3563 20.4845 18.4652 20.2496 18.5805 20.0175C19.8155 17.5645 21.0484 15.1109 22.2792 12.6569C22.5162 12.1839 22.7507 11.7099 22.9853 11.236C23.405 10.3878 23.8247 9.53985 24.2582 8.69796C24.3743 8.49698 24.4359 8.27306 24.4379 8.04532C24.4398 7.81759 24.382 7.5928 24.2694 7.39015C23.831 6.53362 23.4078 5.67069 22.9846 4.80793C22.734 4.2968 22.4833 3.78572 22.2295 3.27608C21.7716 2.35889 21.3073 1.44416 20.8365 0.531895C20.6636 0.194967 20.4154 -0.0281736 19.9511 0.00285918C19.5108 0.039803 19.2642 0.248166 19.0913 0.593961C18.8025 1.17319 18.5104 1.75093 18.2183 2.3289C18.0051 2.75068 17.7919 3.17259 17.5798 3.59528C16.4632 5.8188 15.3488 8.0443 14.2365 10.2718C13.1147 12.5199 11.9938 14.77 10.8741 17.0221C10.596 17.5816 10.3228 18.1426 10.0496 18.7037C9.70143 19.4186 9.35316 20.1337 8.99434 20.8466C8.72328 21.3935 8.44762 21.9384 8.17202 22.4832C7.86154 23.097 7.55113 23.7106 7.24747 24.3267C7.0153 24.7981 7.14339 25.1439 7.61253 25.4394C7.78351 25.5431 7.96161 25.6364 8.14572 25.7187C10.4493 26.7896 12.756 27.86 15.0659 28.9299L21.5186 31.9194C23.3194 32.7489 25.117 33.5833 26.9113 34.4227C27.7251 34.8035 28.537 35.1878 29.3489 35.5721C30.2255 35.9869 31.1019 36.4018 31.9806 36.8122C34.0258 37.7639 36.0716 38.7136 38.1178 39.6613C38.3335 39.7608 38.55 39.8526 38.7217 39.9254ZM0.116885 38.6121C0.0629791 38.7374 0.0237935 38.8677 0 39.0007C0.0160116 39.815 0.640464 40.177 1.32256 39.8593C2.46667 39.3411 3.60534 38.8088 4.74395 38.2765C4.98527 38.1637 5.22659 38.0509 5.46796 37.9382C7.82593 36.8398 10.1834 35.7383 12.5403 34.634C13.7476 34.0665 14.958 33.4931 16.1493 32.902C16.9499 32.5075 16.9499 31.7331 16.1493 31.3253C15.3983 30.9411 14.6346 30.5761 13.8676 30.2184C13.1506 29.8861 12.4303 29.558 11.7101 29.2299C11.2933 29.04 10.8765 28.8501 10.4604 28.6594C10.0724 28.4809 9.6852 28.3014 9.29802 28.122C8.49944 27.7518 7.70116 27.3818 6.89779 27.0206C6.44627 26.8181 6.0828 26.9201 5.78979 27.294C5.67265 27.4482 5.57286 27.6131 5.49197 27.7861C5.26269 28.2496 5.03579 28.7143 4.80892 29.179C4.54466 29.7203 4.28044 30.2616 4.0125 30.8007C2.71023 33.4035 1.41169 36.0073 0.116885 38.6121Z" fill="white"/>
</g>
</g>
<defs>
<clipPath id="clip0_17844_81">
<rect width="40" height="40" fill="white"/>
</clipPath>
<clipPath id="clip1_17844_81">
<rect width="40" height="40" fill="white"/>
</clipPath>
</defs>
</svg>
